PathFileType	4	(X/Y/Z)	24_2_40_p1_0-502_filt_butterworth.trc
DataRate	CameraRate	NumFrames	NumMarkers	Units	OrigDataRate	OrigDataStartFrame	OrigNumFrames
60.0	60.0	6	27	m	60.0	313	502
Frame#	Time	RHip			RKnee			RAnkle			RBigToe			RSmallToe			RHeel			LHip			LKnee			LAnkle			LBigToe			LSmallToe			LHeel			Neck			Head			Nose			RShoulder			RElbow			RWrist			RThumb			RIndex			RPinky			LShoulder			LElbow			LWrist			LThumb			LIndex			LPinky			
		X1	Y1	Z1	X2	Y2	Z2	X3	Y3	Z3	X4	Y4	Z4	X5	Y5	Z5	X6	Y6	Z6	X7	Y7	Z7	X8	Y8	Z8	X9	Y9	Z9	X10	Y10	Z10	X11	Y11	Z11	X12	Y12	Z12	X13	Y13	Z13	X14	Y14	Z14	X15	Y15	Z15	X16	Y16	Z16	X17	Y17	Z17	X18	Y18	Z18	X19	Y19	Z19	X20	Y20	Z20	X21	Y21	Z21	X22	Y22	Z22	X23	Y23	Z23	X24	Y24	Z24	X25	Y25	Z25	X26	Y26	Z26	X27	Y27	Z27	
313	5.216666666666667	0.42009113442080237	0.4947797644841917	0.7794589440396528	0.4280180924971489	0.5800351683680326	1.2530761642363994	0.431248523742067	0.638281464887276	1.6983656631598376	0.40751973175776685	0.5662828872784412	1.7460601430113118	0.4637095580416293	0.5780193389664819	1.7387744790824764	0.4185378474427801	0.6724299328331544	1.7363224580022079	0.22001177135683156	0.48590776641863986	0.7788892107993638	0.20058481414322493	0.5787490690412433	1.2634040065488987	0.20808046464644553	0.6279867199149072	1.7089987879658264	0.2567050506063711	0.5092720788350467	1.7279219245176725	0.18735899451780322	0.535213599117724	1.73287148856194	0.21294262887813634	0.6495991667290082	1.746302879167182	0.3500553901206406	0.392688061824048	0.25832818182627737	0.3462923173768715	0.3182544261330676	0.039952576974100415	0.3624124816072671	0.2302403254004094	0.1531663221641482	0.48104035708009957	0.4271723114199671	0.338654727537438	0.5265710239271385	0.5452593632385483	0.6033672486976142	0.43156872328362095	0.6410700182239953	0.8098448248355545	0.4352345793664225	0.5602843458041137	0.8461455173878769	0.4350083910323178	0.5646483675518572	0.858794181931478	0.35656763351457754	0.6978475692584641	0.8941347801179708	0.1862650551674959	0.44911127273774576	0.34697741508360364	0.144957728680763	0.6142590452942801	0.5921986305959077	0.23196709965424728	0.6294696090000917	0.7679167609452311	0.28015199704208377	0.5161441969875379	0.8131154350257046	0.2811396305497775	0.5636873519489847	0.8141354663976881	0.262914533227715	0.6589534083929741	0.8315454913164799
314	5.233333333333333	0.41928278276958786	0.49828978666337853	0.779379827138202	0.4275334812194547	0.582359168283149	1.2549516160131668	0.4323117307235326	0.6392543566293039	1.6987167557207186	0.40778579649825336	0.562813344547505	1.745840757923566	0.4655586872326238	0.5712189633625986	1.7354110496852204	0.4189057026846725	0.6762553974123128	1.7381521075437991	0.21838138731103937	0.48956714202215135	0.7795444717844666	0.201133450199583	0.5777406493897532	1.2607724547084398	0.2080724858571738	0.6280091534433264	1.7087952401372424	0.2566036168904079	0.5070426717410954	1.7255002368648946	0.18518525214212922	0.5390850116678959	1.7317156762331043	0.21241934188804656	0.6491958744753595	1.7453805046412223	0.3500803210558764	0.3925104865157305	0.25785816075030815	0.34329932078744535	0.31306234624992485	0.040467654981681735	0.3599190956238684	0.23231994180126853	0.15323883976392577	0.4826004196269382	0.42221250596768245	0.3375676355279391	0.5273075900285283	0.5420020849754185	0.6025163083661237	0.4317346437298111	0.6397541575377749	0.8078704226023357	0.4352345793664225	0.5602843458041137	0.8461455173878769	0.43500839103231775	0.5646483675518572	0.858794181931478	0.3565674447161263	0.6978479056454595	0.8941348339283975	0.1864072969671015	0.44900776781358315	0.3475262900933101	0.14530421243484407	0.6144376706399768	0.5934039961027928	0.23226093995567193	0.6338092378536385	0.7708176808064822	0.28015199704208377	0.5161441969875379	0.8131154350257046	0.2811396305497775	0.5636873519489847	0.8141354663976881	0.2629145335455715	0.6589534077320598	0.8315454860314392
315	5.25	0.4186874344268102	0.49989819466761837	0.7786158146916202	0.42640020468748396	0.5883315108467063	1.2573645295367288	0.4339369725934459	0.6422090570184507	1.6989275959899317	0.40746251237407033	0.5612020402337984	1.744416885402154	0.46615045261293214	0.5631841246467607	1.7314118209237763	0.42019493474946007	0.678990919341441	1.7411811160521005	0.21620211974023051	0.49432796326066025	0.7803918004895103	0.20153981053342573	0.5769102731632323	1.2580170639930501	0.20804610482845118	0.6281168012745152	1.7086474030721823	0.25536116666038333	0.5064881783399695	1.7237803592117438	0.18354261913015704	0.5425224378174152	1.7316459373069422	0.21257242864955675	0.6490068385363341	1.744802463100163	0.35013639738679986	0.39256670786563896	0.25776773067926484	0.3410954269724922	0.30710477764472593	0.040925224144300595	0.35677099963192443	0.2353225718124334	0.15332230880301592	0.483852660407476	0.4186972140982982	0.33706917628516164	0.5277093037255862	0.5396630650144214	0.6008115420008052	0.4323421774640413	0.6364394270914395	0.8059654989787588	0.4352345793664225	0.5602843458041137	0.8461455173878769	0.43500839103231775	0.5646483675518572	0.858794181931478	0.35656732052590323	0.697848112769469	0.8941348668392383	0.18660229925931046	0.45005989136226116	0.3485928249193175	0.14560825988460263	0.6146906607418039	0.5947080401130801	0.23248598180802768	0.6414286255799033	0.7750008740288955	0.28015199704208377	0.5161441969875379	0.8131154350257046	0.2811396305497775	0.5636873519489847	0.8141354663976881	0.2629145336005726	0.6589534078167077	0.8315454848419478
316	5.266666666666667	0.4185439915241742	0.5000502803547932	0.7777987615995026	0.42501372812358923	0.5972809088578814	1.2587949147996311	0.43569202214319436	0.6471977707403203	1.6998007812821407	0.4069797754900664	0.5611825666031207	1.7412502409334323	0.46615618359615674	0.558049133563735	1.7281347937933231	0.4224275124820327	0.6822340089640858	1.74385607802594	0.21455444108680538	0.4979340506574135	0.7810104572628984	0.2016568760891749	0.5761877604073774	1.2554739818650966	0.20799913724000602	0.6283055165047792	1.7085223592102858	0.25275592756596504	0.5066038498167973	1.7225222972415712	0.18280167173197287	0.5436469713600821	1.731882662139169	0.21295163677819684	0.6487821701158035	1.74416549769707	0.35026114420848026	0.3926386793692477	0.25788203736045767	0.33974807925579403	0.3021073193905639	0.04098834323683887	0.3534322651729695	0.23785012054149715	0.15341335632613023	0.4844299714928732	0.4172764782130574	0.33696447490947884	0.5274782913728121	0.5408589691866265	0.5982164059513433	0.43285992265165585	0.6337690866580159	0.8042460629608035	0.4352345793664225	0.5602843458041137	0.8461455173878769	0.4350083910323178	0.5646483675518572	0.858794181931478	0.3565672888913143	0.6978481603584354	0.8941348743142086	0.1869066480947727	0.45296546384278213	0.34987293332329833	0.14580153410604135	0.6150240023227681	0.5957918311337774	0.23201280580496247	0.6480850530674179	0.7791488570437342	0.28015199704208377	0.5161441969875379	0.8131154350257046	0.2811396305497775	0.5636873519489847	0.8141354663976881	0.26291453355826927	0.6589534080280959	0.8315454853747875
317	5.283333333333333	0.41862958418740415	0.4994645191972975	0.7773675753301661	0.42398796858915355	0.6055350964932925	1.2590676111151138	0.43710320764621746	0.6527636490931327	1.7013651015425424	0.4070199876506886	0.5615900468352837	1.7375913392531228	0.46649412270004703	0.5574203268186689	1.725933101064593	0.42503904104530854	0.6873175178335463	1.7451465586234445	0.21391814518148627	0.49940474762278914	0.7812384862761321	0.20145702864728574	0.5755173784473825	1.2534215582433577	0.2079358071551794	0.6285612648422556	1.708529151386689	0.25034623526596905	0.5064754821118662	1.7215399717436743	0.18250618202743726	0.5430626142190241	1.7318751998037276	0.21300704179724067	0.6490156469722687	1.7440123750271352	0.3504087327154457	0.3925633129080902	0.25829853405161307	0.3388327167172558	0.2986064022386446	0.040458214790571934	0.3500217232893601	0.2394883668716848	0.15348809082870357	0.4845484909502742	0.4170579916605168	0.33697329456846054	0.5268421306615259	0.5465958509211836	0.5961095716288236	0.43299735368027503	0.6327716783492415	0.8028205607824566	0.4352345793664225	0.5602843458041137	0.8461455173878769	0.4350083910323178	0.5646483675518572	0.858794181931478	0.35656729912776114	0.6978481400789963	0.8941348710381796	0.187291725979096	0.4569808742073245	0.35084600956354123	0.14587992328482074	0.6153479937697602	0.5962969045964965	0.23044550328233268	0.650764493410408	0.7825673997094467	0.28015199704208377	0.5161441969875379	0.8131154350257046	0.2811396305497775	0.5636873519489847	0.8141354663976881	0.26291453351880983	0.6589534081388496	0.8315454859912204
318	5.3	0.4186792269857841	0.4985659287171648	0.7771626277966449	0.4233598272899758	0.609801453149829	1.2588231092196345	0.43788915942618667	0.6567341695335795	1.7026963217386315	0.40776276949772244	0.5616643147808376	1.7353603963633915	0.46743572786149606	0.559866656711495	1.7246911213102945	0.42707049471463215	0.692984747150997	1.7453297630147246	0.21392865389584498	0.499488618707455	0.7812723717817684	0.20102175815380927	0.5749699850734097	1.2522178526720296	0.20785631509002908	0.6289078057371217	1.7087296625311168	0.2500265201674179	0.5048999498115705	1.7201006496645381	0.1821534938268918	0.5416942167964023	1.731487536876836	0.21196126672539642	0.651008760307584	1.74584825120255	0.3502471038093809	0.3923743687291947	0.2591574225941525	0.3378482969936149	0.29569118716462545	0.039627706285564224	0.3470268768783839	0.2408162866741677	0.153534911664107	0.48441117989284926	0.4174422620792809	0.336987238095834	0.5261378921596679	0.5550412809225336	0.5961997072870664	0.4329194309919767	0.6327053842669684	0.8019458536198103	0.4352345793664225	0.5602843458041137	0.8461455173878769	0.43500839103231775	0.5646483675518572	0.858794181931478	0.3565673130816623	0.6978481160608269	0.8941348672093289	0.1875885490449779	0.46027129189023697	0.3513148946568285	0.14589431409951448	0.6154454011203971	0.596333659347563	0.22836534773134054	0.6516310444523115	0.784936063057362	0.28015199704208377	0.5161441969875379	0.8131154350257046	0.2811396305497775	0.5636873519489847	0.8141354663976881	0.262914533504507	0.6589534081567201	0.8315454862454355
